<svg width="134" height="134" viewBox="0 0 134 134" fill="none" xmlns="http://www.w3.org/2000/svg">
<path d="M56.8457 16.0801C22.9919 16.0801 2.68018 43.2365 2.68018 56.8161C2.68018 70.3956 9.44986 80.5796 22.9919 80.5796C36.5339 80.5796 43.3063 83.9725 43.3063 94.1565C43.3063 107.733 53.4608 117.917 67.0029 117.917C111.014 117.917 131.323 94.1565 131.323 70.3956C131.32 29.6596 97.4611 16.0801 56.8457 16.0801ZM48.3822 29.6596C49.4951 29.661 50.5967 29.8816 51.6243 30.3088C52.6519 30.736 53.5853 31.3613 54.3712 32.1492C55.1571 32.9371 55.7801 33.8721 56.2047 34.9008C56.6293 35.9294 56.8471 37.0317 56.8457 38.1445C56.8457 42.8345 53.0561 46.6321 48.3822 46.6321C43.7083 46.6321 39.9188 42.8318 39.9188 38.1445C39.9174 37.0317 40.1352 35.9294 40.5597 34.9008C40.9843 33.8721 41.6073 32.9371 42.3932 32.1492C43.1791 31.3613 44.1125 30.736 45.1401 30.3088C46.1677 29.8816 47.2694 29.661 48.3822 29.6596ZM75.4609 29.6596C76.5738 29.661 77.6754 29.8816 78.703 30.3088C79.7306 30.736 80.664 31.3613 81.4499 32.1492C82.2358 32.9371 82.8588 33.8721 83.2834 34.9008C83.708 35.9294 83.9258 37.0317 83.9244 38.1445C83.9261 39.2576 83.7086 40.3601 83.2842 41.3891C82.8598 42.4181 82.2368 43.3533 81.4509 44.1415C80.6649 44.9297 79.7314 45.5553 78.7037 45.9827C77.6759 46.41 76.574 46.6307 75.4609 46.6321C74.3481 46.6303 73.2465 46.4094 72.219 45.9819C71.1916 45.5544 70.2584 44.9287 69.4727 44.1406C68.6871 43.3524 68.0643 42.4173 67.6401 41.3885C67.2159 40.3597 66.9984 39.2574 67.0002 38.1445C66.9973 35.8975 67.887 33.7413 69.4737 32.1502C71.0603 30.559 73.2139 29.6632 75.4609 29.6596ZM102.545 43.2365C103.658 43.2376 104.76 43.458 105.789 43.8852C106.817 44.3123 107.75 44.9379 108.537 45.7261C109.323 46.5143 109.946 47.4497 110.371 48.4789C110.795 49.5081 111.013 50.6108 111.011 51.7241C111.013 52.8372 110.795 53.9398 110.371 54.9688C109.946 55.9979 109.323 56.9331 108.537 57.7211C107.75 58.5091 106.816 59.1344 105.788 59.5613C104.76 59.9882 103.658 60.2083 102.545 60.209C101.432 60.2079 100.33 59.9875 99.3029 59.5605C98.2753 59.1334 97.3419 58.508 96.5562 57.72C95.7704 56.932 95.1477 55.9968 94.7235 54.968C94.2994 53.9392 94.0821 52.8369 94.0842 51.7241C94.0821 50.6111 94.2993 49.5087 94.7235 48.4797C95.1476 47.4508 95.7703 46.5154 96.556 45.7272C97.3417 44.939 98.2751 44.3133 99.3027 43.886C100.33 43.4586 101.432 43.2379 102.545 43.2365Z" fill="#F5BD50"/>
<path d="M24.6856 50.0273C25.7982 50.0284 26.8997 50.2487 27.9271 50.6756C28.9545 51.1025 29.8878 51.7277 30.6735 52.5154C31.4592 53.3031 32.082 54.2379 32.5063 55.2664C32.9306 56.2949 33.1481 57.397 33.1464 58.5095C33.1464 63.1995 29.3569 66.9971 24.6856 66.9971C20.0144 66.9971 16.2222 63.1969 16.2222 58.5095C16.22 56.2625 17.1104 54.1066 18.6976 52.516C20.2847 50.9254 22.4386 50.0302 24.6856 50.0273Z" fill="#F5BD50"/>
<path d="M67.0002 83.9727C72.6095 83.9727 77.1548 88.5287 77.1548 94.1593C77.1548 99.782 72.6095 104.341 67.0002 104.341C61.391 104.341 56.8457 99.782 56.8457 94.1593C56.8433 92.8236 57.104 91.5005 57.613 90.2656C58.1221 89.0306 58.8695 87.9081 59.8125 86.9621C60.7555 86.0161 61.8756 85.2652 63.1089 84.7523C64.3422 84.2393 65.6645 83.9744 67.0002 83.9727Z" fill="#F8ECEC"/>
</svg>
