<svg width="133" height="133" viewBox="0 0 133 133" fill="none" xmlns="http://www.w3.org/2000/svg">
<path d="M94.962 35.4666L69.6034 10.1966C68.7755 9.36197 67.6501 8.89028 66.4745 8.88529C65.2989 8.88031 64.1695 9.34243 63.3346 10.17L63.308 10.1966L38.038 35.4666H13.3C12.1242 35.4666 10.9966 35.9337 10.1652 36.7651C9.33378 37.5965 8.8667 38.7242 8.8667 39.9V119.7C8.8667 120.876 9.33378 122.003 10.1652 122.835C10.9966 123.666 12.1242 124.133 13.3 124.133H119.7C120.876 124.133 122.003 123.666 122.835 122.835C123.666 122.003 124.133 120.876 124.133 119.7V39.9C124.133 38.7242 123.666 37.5965 122.835 36.7651C122.003 35.9337 120.876 35.4666 119.7 35.4666H94.962Z" fill="#F5BD50"/>
<path d="M66.5002 19.5952L82.3716 35.4665H50.6289L66.5002 19.5952Z" fill="#F5BD50"/>
<path d="M115.267 115.267H17.7334V44.3335H115.267V115.267Z" fill="#F7F0F0"/>
<path d="M44.3335 70.9335C41.9819 70.9335 39.7266 69.9994 38.0638 68.3365C36.401 66.6737 35.4668 64.4184 35.4668 62.0669C35.4668 59.7153 36.401 57.46 38.0638 55.7972C39.7266 54.1344 41.9819 53.2002 44.3335 53.2002C46.6851 53.2002 48.9403 54.1344 50.6031 55.7972C52.266 57.46 53.2001 59.7153 53.2001 62.0669C53.2001 64.4184 52.266 66.6737 50.6031 68.3365C48.9403 69.9994 46.6851 70.9335 44.3335 70.9335ZM106.4 106.4H39.9001L53.2001 79.8002L64.2835 101.967L84.2335 62.0669L106.4 106.4Z" fill="#F5BD50"/>
</svg>
