<svg width="143" height="143" viewBox="0 0 143 143" fill="none" xmlns="http://www.w3.org/2000/svg">
<path d="M71.5 47.6667C58.3321 47.6667 47.6667 58.3321 47.6667 71.5C47.6667 84.6679 58.3321 95.3333 71.5 95.3333C84.6679 95.3333 95.3333 84.6679 95.3333 71.5C95.3333 58.3321 84.6679 47.6667 71.5 47.6667ZM23.8333 89.375C20.5563 89.375 17.875 92.0563 17.875 95.3333V113.208C17.875 119.763 23.2375 125.125 29.7917 125.125H47.6667C50.9438 125.125 53.625 122.444 53.625 119.167C53.625 115.89 50.9438 113.208 47.6667 113.208H35.75C32.4729 113.208 29.7917 110.527 29.7917 107.25V95.3333C29.7917 92.0563 27.1104 89.375 23.8333 89.375ZM29.7917 35.75C29.7917 32.4729 32.4729 29.7917 35.75 29.7917H47.6667C50.9438 29.7917 53.625 27.1104 53.625 23.8333C53.625 20.5563 50.9438 17.875 47.6667 17.875H29.7917C23.2375 17.875 17.875 23.2375 17.875 29.7917V47.6667C17.875 50.9438 20.5563 53.625 23.8333 53.625C27.1104 53.625 29.7917 50.9438 29.7917 47.6667V35.75ZM113.208 17.875H95.3333C92.0563 17.875 89.375 20.5563 89.375 23.8333C89.375 27.1104 92.0563 29.7917 95.3333 29.7917H107.25C110.527 29.7917 113.208 32.4729 113.208 35.75V47.6667C113.208 50.9438 115.89 53.625 119.167 53.625C122.444 53.625 125.125 50.9438 125.125 47.6667V29.7917C125.125 23.2375 119.763 17.875 113.208 17.875ZM113.208 107.25C113.208 110.527 110.527 113.208 107.25 113.208H95.3333C92.0563 113.208 89.375 115.89 89.375 119.167C89.375 122.444 92.0563 125.125 95.3333 125.125H113.208C119.763 125.125 125.125 119.763 125.125 113.208V95.3333C125.125 92.0563 122.444 89.375 119.167 89.375C115.89 89.375 113.208 92.0563 113.208 95.3333V107.25Z" fill="#F5BD50"/>
</svg>
