<svg width="111" height="111" viewBox="0 0 111 111" fill="none" xmlns="http://www.w3.org/2000/svg">
<path d="M83.25 41.625V32.375H74V13.135C68.1552 10.5648 61.8387 9.24162 55.4538 9.25004C29.9237 9.25004 9.25 29.97 9.25 55.5C9.25 81.03 29.9237 101.75 55.4538 101.75C81.03 101.75 101.75 81.03 101.75 55.5C101.75 50.6438 100.964 46.0188 99.5763 41.625H83.25ZM71.6875 37C75.5263 37 78.625 40.0988 78.625 43.9375C78.625 47.7763 75.5263 50.875 71.6875 50.875C67.8488 50.875 64.75 47.7763 64.75 43.9375C64.75 40.0988 67.8488 37 71.6875 37ZM39.3125 37C43.1512 37 46.25 40.0988 46.25 43.9375C46.25 47.7763 43.1512 50.875 39.3125 50.875C35.4737 50.875 32.375 47.7763 32.375 43.9375C32.375 40.0988 35.4737 37 39.3125 37ZM55.5 80.9375C44.7238 80.9375 35.5662 74.185 31.8662 64.75H79.1338C75.4338 74.185 66.2762 80.9375 55.5 80.9375Z" fill="#F5BD50"/>
<path d="M101.75 13.875H111V23.125H101.75V32.375H92.5V23.125H83.25V13.875H92.5V4.625H101.75V13.875Z" fill="#F5BD50"/>
</svg>
